<?xml version="1.0" encoding="UTF-8" standalone="no"?>
<svg
   version="1.1"
   width="595.27557pt"
   height="841.88977pt"
   id="svg4"
   viewBox="0 0 595.27557 841.88977"
   sodipodi:docname="Logomarca_ORIGINAL.cdr"
   xmlns:inkscape="http://www.inkscape.org/namespaces/inkscape"
   xmlns:sodipodi="http://sodipodi.sourceforge.net/DTD/sodipodi-0.dtd"
   xmlns="http://www.w3.org/2000/svg"
   xmlns:svg="http://www.w3.org/2000/svg">
  <defs
     id="defs4" />
  <sodipodi:namedview
     id="namedview4"
     pagecolor="#ffffff"
     bordercolor="#000000"
     borderopacity="0.25"
     inkscape:showpageshadow="2"
     inkscape:pageopacity="0.0"
     inkscape:pagecheckerboard="0"
     inkscape:deskcolor="#d1d1d1"
     inkscape:document-units="pt" />
  <g
     id="Layer1000">
    <path
       d="m 423.4805,265.7568 c -17.9031,-9.8424 -42.5969,-5.5202 -56.6012,2.2379 15.9106,-2.2814 38.8405,-5.2611 50.339,0.6528 l -0.1514,3.2666 c -26.2081,-3.1587 -49.4516,-1.102 -75.5251,6.0743 40.4687,-7.5611 66.9519,-2.8272 99.7719,10.8089 l 39.7061,168.297 c 0.181,0.744 -1.3051,0.7787 -1.9856,1.1635 -0.2405,0.1353 -0.4928,0.2611 -0.7325,0.3938 -0.4379,0.2431 -0.8781,0.4836 -1.3243,0.726 -0.3227,0.17 -0.6439,0.3304 -0.9757,0.4906 -0.4026,0.2059 -0.7972,0.4125 -1.2165,0.6183 -0.2772,0.1424 -0.5721,0.2771 -0.8588,0.4214 -0.4559,0.2129 -0.9052,0.4286 -1.3701,0.653 -0.3294,0.1514 -0.6618,0.2957 -1.0004,0.4471 -0.4649,0.2058 -0.923,0.4117 -1.3969,0.6175 -0.2591,0.1148 -0.5368,0.2315 -0.8049,0.3482 -0.5106,0.2164 -1.0308,0.4381 -1.5566,0.6529 -0.3233,0.1265 -0.6535,0.2591 -0.9769,0.3849 -0.5176,0.2156 -1.0371,0.4124 -1.5636,0.619 -0.2777,0.105 -0.5477,0.2031 -0.8249,0.3116 -0.536,0.2058 -1.0812,0.4029 -1.638,0.5997 -0.3758,0.1424 -0.751,0.2771 -1.1359,0.4124 -0.4925,0.1694 -0.9823,0.3392 -1.475,0.5086 -0.3412,0.1167 -0.6894,0.2335 -1.0376,0.3502 -0.5384,0.179 -1.0834,0.3572 -1.6285,0.5362 -0.367,0.1167 -0.742,0.2335 -1.12,0.3482 -0.5983,0.1872 -1.216,0.3751 -1.8323,0.5631 -0.27,0.0828 -0.5382,0.1629 -0.8068,0.2432 -0.6095,0.1782 -1.225,0.3572 -1.8433,0.5264 -0.3758,0.1077 -0.7421,0.2156 -1.1089,0.3226 -0.5105,0.1355 -1.0281,0.2681 -1.5475,0.4124 -0.4381,0.1148 -0.8782,0.2315 -1.3155,0.3482 -0.5452,0.1446 -1.1,0.2867 -1.6472,0.4215 -0.4185,0.1079 -0.84,0.2134 -1.2622,0.3123 -0.9548,0.2329 -1.9214,0.4644 -2.8969,0.6888 -0.0181,0 -0.0457,0.009 -0.0621,0.0186 -0.3318,0.0713 -0.68,0.1418 -1.0211,0.2239 -1.4751,0.3304 -2.971,0.6439 -4.4833,0.9486 -0.1251,0.0249 -0.2495,0.0615 -0.3842,0.0801 -1.6995,0.3482 -3.4267,0.671 -5.1726,0.9763 -0.3482,0.0607 -0.6956,0.123 -1.037,0.1872 -0.7054,0.1236 -1.4136,0.2411 -2.128,0.3578 -0.2867,0.0429 -0.5824,0.0982 -0.8864,0.1418 -0.7074,0.1168 -1.4226,0.2245 -2.1486,0.3316 -0.3752,0.0621 -0.742,0.1175 -1.1269,0.17 -0.6163,0.0987 -1.2532,0.1788 -1.8785,0.2777 -0.4733,0.0634 -0.9576,0.1249 -1.4406,0.1962 -0.5284,0.0711 -1.0556,0.1354 -1.5918,0.2066 -0.5726,0.0703 -1.1537,0.1506 -1.7361,0.2245 -0.5451,0.0615 -1.0923,0.1237 -1.6471,0.197 -0.4471,0.0435 -0.9022,0.0987 -1.3603,0.1512 -0.68,0.0705 -1.3584,0.1514 -2.0389,0.2148 -0.4305,0.0437 -0.849,0.0891 -1.2795,0.1334 -0.6439,0.0636 -1.2788,0.1251 -1.9337,0.1782 -0.4471,0.0456 -0.9024,0.0913 -1.3674,0.1257 -0.6183,0.0555 -1.2442,0.1079 -1.8619,0.161 -0.5272,0.0457 -1.0557,0.0823 -1.5827,0.1258 -0.6191,0.0464 -1.2348,0.0891 -1.8621,0.1347 -0.3122,0.0188 -0.6259,0.0347 -0.9307,0.0623 -0.8221,0.0546 -1.647,0.0987 -2.4684,0.1533 -0.1513,0.007 -0.3145,0.0159 -0.4651,0.0249 -0.9394,0.0552 -1.8812,0.0987 -2.8201,0.1443 h -0.0159 c -1.0405,0.0443 -2.0865,0.0899 -3.1339,0.1244 -0.0338,0 -0.0795,0 -0.1237,0.008 -1.0832,0.0366 -2.1658,0.0642 -3.2479,0.0891 -3.2222,0.0836 -6.4432,0.0995 -9.6536,0.0648 h -0.1446 c -2.0843,-0.0186 -4.1597,-0.0648 -6.2352,-0.1353 -0.1071,0 -0.2244,-0.009 -0.3316,-0.009 -0.903,-0.0345 -1.7984,-0.0705 -2.7028,-0.1077 -0.2411,-0.0167 -0.4816,-0.0249 -0.724,-0.0347 -0.7883,-0.0366 -1.5828,-0.0801 -2.3801,-0.1257 -0.2951,-0.0186 -0.6004,-0.0276 -0.9044,-0.0435 -0.921,-0.0546 -1.8419,-0.1167 -2.7717,-0.1809 -0.0367,-0.009 -0.0733,-0.009 -0.1072,-0.009 -0.9853,-0.0712 -1.9794,-0.1415 -2.9619,-0.2314 -0.1167,-0.009 -0.2432,-0.0186 -0.3668,-0.0271 -1.96,-0.1609 -3.9125,-0.3482 -5.8436,-0.5644 -0.2673,-0.0268 -0.5375,-0.0525 -0.7966,-0.0891 -0.831,-0.0891 -1.6471,-0.1872 -2.4692,-0.2859 -0.1782,-0.018 -0.3482,-0.0437 -0.5196,-0.0623 -0.8317,-0.1077 -1.6725,-0.2148 -2.5036,-0.3226 -0.2613,-0.0366 -0.5204,-0.0802 -0.7885,-0.1079 -1.8162,-0.2591 -3.6139,-0.536 -5.3959,-0.8317 -0.2216,-0.0366 -0.4373,-0.0705 -0.6617,-0.1167 -1.6194,-0.2764 -3.2388,-0.5721 -4.8218,-0.8768 -0.1788,-0.0345 -0.3483,-0.0711 -0.5202,-0.1077 -1.752,-0.3476 -3.4793,-0.7235 -5.1871,-1.1179 -0.2432,-0.0525 -0.4843,-0.1079 -0.7179,-0.1604 -0.6798,-0.1602 -1.3514,-0.3225 -2.0223,-0.4925 -0.2583,-0.0615 -0.5264,-0.1348 -0.7855,-0.1969 -0.6549,-0.1604 -1.3085,-0.3386 -1.9518,-0.5105 -0.3226,-0.0893 -0.6439,-0.17 -0.9665,-0.2585 -0.6529,-0.179 -1.2969,-0.3676 -1.9324,-0.5458 -0.241,-0.0711 -0.4815,-0.1438 -0.724,-0.2149 -0.6163,-0.179 -1.2264,-0.3668 -1.826,-0.5548 -0.3758,-0.1167 -0.7511,-0.2334 -1.1269,-0.3482 -0.5204,-0.172 -1.0378,-0.3412 -1.5483,-0.5106 -0.3296,-0.1167 -0.6618,-0.2244 -0.9824,-0.3413 -0.6004,-0.1941 -1.1821,-0.4007 -1.7639,-0.6161 -0.2591,-0.0899 -0.5106,-0.1881 -0.7697,-0.2772 -0.6431,-0.2432 -1.2802,-0.4829 -1.9061,-0.7261 -0.1416,-0.0525 -0.286,-0.1146 -0.4277,-0.1693 -0.6804,-0.2591 -1.3424,-0.5272 -2.0043,-0.8041 -0.1968,-0.0801 -0.3848,-0.1713 -0.5817,-0.2514 -0.628,-0.2689 -1.2531,-0.5368 -1.8626,-0.814 -0.1416,-0.0642 -0.2859,-0.1257 -0.4193,-0.1872 -0.6273,-0.2867 -1.2526,-0.5734 -1.8621,-0.8678 -0.2058,-0.0995 -0.4124,-0.1976 -0.6161,-0.3053 -1.3356,-0.6529 -2.6407,-1.3239 -3.8939,-2.0223 42.5007,31.772 150.7983,31.664 193.6126,4.5467 L 450.2863,282.1841 c -12.6233,-4.8031 -15.0924,-5.7695 -25.9727,-9.4022 z"
       style="fill:#ffcb00;fill-rule:evenodd"
       id="path1" />
    <path
       d="m 527.5841,580.3352 h -48.781 l 3.5684,-15.138 h 40.0406 c 6.745,0 10.6914,-2.4535 11.8555,-7.3637 1.1083,-4.7167 -1.7017,-7.0773 -8.4475,-7.0773 h -16.5349 c -2.3615,0 -4.222,-0.0539 -5.5637,-0.143 -1.3417,-0.0885 -3.2479,-0.3496 -5.7012,-0.7601 -2.4508,-0.4214 -4.5537,-1.3423 -6.3079,-2.7829 -1.7618,-1.4322 -2.854,-3.5622 -3.2735,-6.3886 -0.4305,-2.8195 -0.1692,-6.2278 0.7697,-10.2086 3.6673,-15.5505 13.9747,-23.3355 30.9221,-23.3355 h 40.7176 l -3.5706,15.1381 h -36.9874 c -5.762,0 -9.3587,1.6278 -10.7627,4.8674 l -0.554,2.3635 c -0.9577,4.07 1.5642,6.1108 7.5769,6.1108 h 17.3572 c 3.4538,0 6.5325,0.3947 9.2171,1.1794 2.6848,0.7883 4.9115,2.0319 6.6996,3.7502 1.7825,1.7085 2.9709,3.8822 3.5801,6.5233 0.6095,2.6386 0.5106,5.6716 -0.3039,9.0985 -0.9853,4.1708 -2.4077,7.686 -4.2676,10.5588 -1.8619,2.872 -3.507,5.0179 -4.9386,6.4591 -1.4314,1.4314 -3.482,2.9797 -6.1571,4.6524 -2.6654,1.6651 -6.0556,2.4962 -10.1532,2.4962 z M 423.2122,565.7518 h 23.7735 l 3.6139,-15.2733 h -22.4124 c -3.1856,0 -6.012,0.4829 -8.4729,1.4584 -2.4596,0.9673 -4.0632,3.024 -4.8142,6.1731 -0.4994,2.1306 -0.4097,3.7749 0.2771,4.9294 0.6805,1.1635 1.647,1.9061 2.8906,2.2281 1.2436,0.3233 2.9612,0.4843 5.1444,0.4843 z m 16.6864,-43.4762 h -31.8424 l 3.5774,-15.1381 h 38.9384 c 4.6456,0 8.7964,0.465 12.4567,1.3942 3.6507,0.9238 6.8524,3.3564 9.6173,7.2938 2.7559,3.9276 3.1311,10.156 1.1178,18.672 l -10.8159,45.8377 h -50.9633 c -7.1052,0 -12.1149,-1.9427 -15.0235,-5.8339 -3.1317,-3.7038 -3.8918,-8.9829 -2.2724,-15.8366 l 0.4562,-1.94 c 1.4404,-4.1709 3.2133,-7.6156 5.3157,-10.3439 2.103,-2.7374 4.6517,-4.8674 7.6571,-6.3887 2.9983,-1.5296 6.0928,-2.5944 9.2876,-3.1954 3.1954,-0.6065 7.0229,-0.9017 11.4895,-0.9017 h 25.1407 c 0.923,-3.8917 0.9044,-6.8376 -0.0345,-8.8232 -0.941,-1.9947 -2.5509,-3.2824 -4.8232,-3.8918 -2.2724,-0.6003 -5.3696,-0.9044 -9.2792,-0.9044 z m -92.2732,58.0596 h -18.8598 l 17.277,-73.1977 h 31.9786 c 5.8241,0 10.0018,0.841 12.5237,2.5058 2.5244,1.6631 3.8571,3.9375 4.0017,6.8095 0.1333,2.8638 -0.3939,6.8439 -1.594,11.9338 l -1.1455,4.8673 -1.0564,4.439 h -18.0371 l 1.3784,-5.834 c 0.8934,-3.7929 1.272,-6.3175 1.1088,-7.5701 -0.1602,-1.2442 -0.8221,-2.1029 -1.9944,-2.5679 -1.1365,-0.179 -2.1557,-0.3205 -3.0428,-0.4104 -0.8864,-0.0982 -2.3793,-0.1438 -4.4727,-0.1438 h -4.0978 z m -102.3468,0 23.5677,-99.8618 h 18.8592 l -6.2983,26.6641 h 16.5352 c 6.1999,0 11.4154,0.7697 15.6486,2.2994 4.2392,1.5213 7.4712,4.2578 9.6793,8.1862 2.2199,3.9382 3.4815,7.9454 3.7958,12.016 0.3116,4.0729 -0.0989,8.5187 -1.2354,13.3335 l -0.6177,2.6386 c -0.5914,2.5058 -1.4136,4.9135 -2.4601,7.2189 -1.0468,2.3188 -2.6566,5.1908 -4.8328,8.6175 -2.1743,3.4268 -5.0718,6.6216 -8.688,9.5833 -3.6147,2.962 -7.7303,5.2521 -12.3461,6.8716 -4.6172,1.6194 -9.6635,2.4327 -15.1306,2.4327 z m 44.1084,-57.2167 h -11.7478 l -9.8058,41.5245 5.8339,0.2771 h 5.7627 c 6.2186,0 11.4162,-1.0654 15.5851,-3.1954 4.1709,-2.1308 7.2742,-6.4315 9.3497,-12.9182 l 1.1545,-4.8612 c 1.2892,-5.4649 1.4861,-9.6082 0.6087,-12.4256 -0.8858,-2.8285 -2.148,-4.7967 -3.8021,-5.905 -1.6462,-1.111 -3.3736,-1.8094 -5.1808,-2.0865 -1.7984,-0.2769 -4.3845,-0.4097 -7.7581,-0.4097 z m -96.7742,41.8016 c 0.6461,0.3668 1.5145,0.6431 2.6047,0.8317 1.1012,0.1872 2.1923,0.2771 3.2845,0.2771 3.9188,0 7.7469,-1.1545 11.4777,-3.4725 3.7316,-2.3158 6.5233,-5.1353 8.3584,-8.4729 1.8343,-3.3273 3.1491,-6.7086 3.9623,-10.1382 1.1545,-4.9011 1.2802,-9.1867 0.3668,-12.847 -0.9119,-3.6597 -3.1317,-6.3167 -6.6567,-7.9798 -2.3339,-0.9326 -4.5439,-1.3976 -6.6381,-1.3976 -2.3705,0 -4.9473,0.5106 -7.7393,1.5304 -2.7463,1.2089 -5.154,2.7302 -7.2287,4.5811 -2.0775,1.8523 -3.8663,4.1254 -5.3688,6.8094 -1.4939,2.6841 -2.6662,5.7876 -3.4911,9.3035 -1.1173,4.7257 -1.1449,8.9837 -0.0803,12.7794 1.0654,3.7922 3.4448,6.5295 7.1486,8.1954 z m 32.3191,6.6657 c -4.2233,3.2382 -8.3209,5.5292 -12.286,6.8709 -3.9532,1.3513 -7.2197,2.2446 -9.7872,2.7097 -2.5679,0.4676 -5.1816,0.6991 -7.8202,0.6991 -5.011,0 -9.805,-0.903 -14.3864,-2.7096 -4.5901,-1.8094 -8.1613,-4.3319 -10.7198,-7.5701 -2.5583,-3.2397 -4.1156,-6.7825 -4.6703,-10.6217 -0.5452,-3.8476 -0.76,-6.9973 -0.6343,-9.4481 0.1238,-2.4511 0.5086,-5.0739 1.1614,-7.847 1.2526,-5.2777 3.0075,-9.7443 5.2889,-13.4025 2.2716,-3.6605 4.2578,-6.4612 5.9414,-8.4012 1.6908,-1.9422 4.1413,-4.2422 7.3643,-6.8806 3.2202,-2.6317 7.4346,-4.8584 12.6405,-6.6651 5.2086,-1.7984 10.5506,-2.7026 16.0156,-2.7026 5.1906,0 9.9778,0.849 14.3525,2.5665 4.3747,1.7093 7.5955,3.8828 9.6634,6.5241 2.0664,2.6386 3.498,4.9564 4.3043,6.9511 0.8035,1.9862 1.475,4.7699 1.9952,8.3315 0.5264,3.5587 0.132,8.1241 -1.1731,13.6788 -1.2534,5.2791 -3.3377,10.3432 -6.2532,15.2107 -2.9273,4.8589 -6.5946,9.0914 -10.997,12.7061 z m -75.6508,-91.1124 h 19.6757 l -4.2944,18.2008 h -19.6759 z m -6.2989,26.6641 h 19.6847 l -17.277,73.1977 H 125.7142 Z M 54.9326,580.3352 H 34.0229 l 10.818,-45.8377 c 1.638,-6.9428 3.39,-13.0261 5.2707,-18.2596 1.8689,-5.225 4.4638,-10.7378 7.7926,-16.5259 3.3279,-5.7883 8.777,-10.4429 16.3471,-13.9589 7.5672,-3.5158 18.1433,-5.2797 31.7165,-5.2797 h 31.4231 l -4.0978,17.3601 h -33.338 c -4.0086,0 -7.8541,0.4649 -11.5324,1.3947 -3.4267,1.0094 -6.3353,2.4079 -8.7066,4.1599 -2.3705,1.7638 -4.249,3.8199 -5.6279,6.1842 -1.3762,2.3614 -2.5031,4.5627 -3.3985,6.5946 -0.8871,2.0381 -1.5767,4.079 -2.0595,6.1087 h 58.8912 l -4.0243,17.0892 H 64.5967 Z"
       style="fill:#008835;fill-rule:evenodd"
       id="path2" />
    <path
       d="m 336.0837,313.2504 c 30.8696,28.9089 71.1409,39.5459 110.0517,34.8041 -38.6435,35.4937 -77.7168,37.1588 -121.4243,10.9417 z m -21.689,88.9698 c 80.1146,28.265 162.8694,-27.8427 188.2796,-105.5761 l 22.9672,12.1487 C 494.8984,395.9145 398.4199,472.5645 304.2317,444.7666 Z"
       style="fill:#008835;fill-rule:evenodd"
       id="path3" />
    <path
       d="m 287.3575,440.3 c -30.8689,-28.8993 -71.1318,-39.5361 -110.0523,-34.8035 38.6524,-35.4847 77.7242,-37.1498 121.4319,-10.9333 z m 21.696,-88.961 C 228.9408,323.0652 146.1868,379.1825 120.767,456.9159 L 97.8088,444.7666 C 128.5526,357.6379 225.0214,280.9955 319.2095,308.7838 Z"
       style="fill:#0076be;fill-rule:evenodd"
       id="path4" />
  </g>
</svg>
